<svg xmlns="http://www.w3.org/2000/svg" viewBox="0 0 168 168" width="40" height="40" fill="none">
  <circle cx="84" cy="84" r="84" fill="#1ED760"/>
  <path fill="#000" d="M120.5 115.1c-1.6 2.6-5 3.4-7.6 1.8-20.9-12.8-47.3-15.7-78.5-8.5-3 0.7-6-1.2-6.7-4.2-0.8-3 1.1-6.1 4.1-6.8 34.6-7.8 65.4-4.5 89.4 9.9 2.6 1.6 3.4 5.1 1.8 7.8zm10.8-22.2c-2 3.2-6.3 4.2-9.5 2.2-23.9-14.7-60.4-19-88.7-10.3-3.5 1-7.2-1-8.2-4.5-1-3.5 1-7.2 4.5-8.2 33.3-9.9 74.1-5.1 101.9 11.3 3.2 2 4.1 6.3 2 9.5zM132 68.1c-28.4-17.2-75.3-18.8-102.4-10.2-4.2 1.3-8.7-1-10-5.2s1-8.7 5.2-10c31.5-9.5 84.4-7.5 118.5 12.3 4 2.4 5.3 7.6 2.9 11.5-2.3 4.1-7.5 5.4-11.2 2.9z"/>
</svg>