<svg width="884" height="785" viewBox="0 0 884 785" fill="none" xmlns="http://www.w3.org/2000/svg">
<path fill-rule="evenodd" clip-rule="evenodd" d="M583.538 19.7004C552.789 30.986 517.338 52.8836 480.788 84.636C470.251 93.7898 459.612 103.756 448.938 114.47C479.379 145.912 509.723 183.539 538.623 225.275C589.137 229.677 636.603 237.468 679.016 248.08C682.078 236.8 684.729 225.765 686.947 215.02C697.407 164.333 699.027 120.026 693.292 85.7872C687.526 51.3589 674.522 28.0948 656.721 17.8471L659.204 13.5337L656.72 17.8471C639.69 8.04348 614.456 8.35294 583.538 19.7004ZM525.756 224.232C498.588 185.629 470.274 150.841 441.961 121.575C413.472 150.999 384.841 185.642 357.36 224.284C384.915 222.211 413.25 221.129 442 221.129C470.534 221.129 498.554 222.192 525.756 224.232ZM441.958 107.372C452.773 96.5204 463.562 86.415 474.26 77.1215C511.422 44.8371 547.902 22.1763 580.109 10.3558C612.147 -1.40306 640.897 -2.74772 661.687 9.2203C683.298 21.6609 697.148 48.5459 703.109 84.143C709.103 119.929 707.325 165.524 696.695 217.031C694.444 227.942 691.756 239.134 688.656 250.563C703.543 254.511 717.763 258.814 731.226 263.446C777.765 279.457 815.62 299.687 841.944 321.64C868.131 343.477 883.65 367.677 883.65 391.647C883.65 416.56 867.252 441.972 839.369 464.914C811.335 487.978 770.919 509.222 720.959 525.765C711.211 528.993 701.071 532.021 690.579 534.846C694.116 547.694 697.112 560.255 699.526 572.47C709.433 622.606 710.437 667.096 703.959 702.074C697.515 736.868 683.465 763.176 662.363 775.412C641.852 787.306 613.692 786.535 582.194 775.434C550.556 764.285 514.695 742.444 477.914 710.741C466.373 700.794 454.69 689.846 442.96 677.999C433.527 687.549 424.071 696.478 414.624 704.721C376.105 738.334 338.023 761.408 304.445 773.247C271.041 785.023 241.194 785.967 220.021 773.779L222.504 769.465L220.021 773.779C199.442 761.931 186.01 737.131 179.864 704.275C173.692 671.276 174.675 629.278 183.751 581.56C186.505 567.086 190.001 552.03 194.207 536.512C181.386 533.157 169.08 529.48 157.359 525.476C108.991 508.954 69.978 487.544 42.9536 464.415C16.0701 441.406 0.349731 416.057 0.349731 391.647C0.349731 367.922 15.1487 343.913 40.5639 322.181C66.0916 300.354 102.993 280.219 148.892 264.226C163.663 259.08 179.419 254.33 196.015 250.013C192.042 235.329 188.695 221.034 185.997 207.219C176.562 158.922 175.117 116.026 180.928 82.2436C186.708 48.6392 199.864 23.08 220.585 11.0649C242.123 -1.42493 272.296 0.027017 306.075 12.657C340.035 25.3545 378.614 49.6804 417.9 84.6213C425.903 91.7385 433.93 99.3349 441.958 107.372ZM205.668 247.574C201.736 233.056 198.428 218.938 195.766 205.31C186.487 157.809 185.19 116.184 190.738 83.9309C196.316 51.5003 208.617 29.5113 225.578 19.6761L225.579 19.676C243.308 9.39458 269.917 9.76446 302.589 21.9806C335.08 34.1292 372.623 57.6739 411.285 92.0592L414.347 88.6165L411.285 92.0592C419.16 99.0629 427.067 106.547 434.982 114.473C404.377 146.061 373.688 183.508 344.44 225.333C294.656 229.677 247.658 237.272 205.668 247.574ZM198.684 259.604C182.28 263.867 166.726 268.554 152.167 273.626C107.054 289.345 71.3533 308.952 47.0328 329.747C22.5998 350.638 10.3038 372.133 10.3038 391.647C10.3038 411.796 23.4607 434.63 49.426 456.852C75.2505 478.954 113.057 499.824 160.576 516.057L158.967 520.766L160.576 516.057C172.107 519.996 184.231 523.616 196.879 526.922C209.123 484.148 226.574 438.131 248.525 391.298C227.361 345.796 210.581 301.242 198.684 259.604ZM254.096 379.595C234.802 337.237 219.42 295.88 208.34 257.168C247.388 247.605 290.914 240.391 337.077 236C321.854 258.342 307.063 281.856 292.924 306.33C278.851 330.691 265.875 355.226 254.096 379.595ZM259.522 391.314C272.108 364.763 286.157 337.944 301.543 311.309C317.002 284.551 333.233 258.973 349.94 234.855C379.778 232.382 410.625 231.083 442 231.083C473.145 231.083 503.644 232.361 533.096 234.796C549.861 259.23 566.143 285.081 581.665 311.938C597.071 338.594 611.343 365.328 624.218 391.751C611.406 418.527 597.118 445.593 581.573 472.502C565.924 499.591 549.618 525.706 532.872 550.402C503.394 552.678 472.94 553.833 442 553.833C411.158 553.833 380.819 552.808 351.453 550.726C334.582 526.373 318.213 500.592 302.685 473.726C286.774 446.195 272.351 418.58 259.522 391.314ZM254.062 403.014C233.99 446.722 217.959 489.517 206.535 529.361C246.437 539.095 291.179 545.843 338.704 549.751C323.28 527.13 308.316 503.361 294.067 478.707C279.475 453.458 266.112 428.119 254.062 403.014ZM345.995 560.309C294.927 556.477 246.72 549.433 203.858 538.954C199.698 554.289 196.244 569.152 193.53 583.42C184.61 630.319 183.769 671.01 189.649 702.445C195.556 734.024 208.054 755.403 224.987 765.152C242.475 775.219 268.87 775.234 301.135 763.859C333.225 752.545 370.236 730.245 408.08 697.221C417.378 689.107 426.698 680.304 436.006 670.875C405.635 639.33 375.08 601.899 345.995 560.309ZM449.899 670.86C461.495 682.578 473.032 693.392 484.413 703.202C520.563 734.361 555.365 755.425 585.502 766.046C615.778 776.716 640.504 776.581 657.37 766.801C674.787 756.702 687.947 733.87 694.171 700.261C700.362 666.834 699.494 623.657 689.76 574.4C687.387 562.39 684.436 550.023 680.947 537.358C638.046 548.192 589.68 555.765 538.415 559.947C509.887 601.645 480.045 639.342 449.899 670.86ZM687.859 525.27C698.22 522.482 708.224 519.497 717.83 516.316C766.997 500.035 806.22 479.296 833.044 457.227C860.018 435.034 873.696 412.161 873.696 391.647C873.696 372.024 860.838 350.357 835.569 329.284C810.438 308.327 773.76 288.606 727.988 272.858C714.718 268.293 700.683 264.047 685.975 260.15C673.982 301.803 656.715 346.365 635.26 391.711C657.467 437.77 675.477 482.967 687.859 525.27ZM629.73 403.226C650.121 446.294 666.67 488.38 678.222 527.78C638.234 537.858 593.307 545.095 545.582 549.346C560.917 526.396 575.84 502.325 590.193 477.481C604.463 452.778 617.7 427.913 629.73 403.226ZM629.648 380.23C649.296 337.892 665.149 296.443 676.331 257.669C636.835 247.803 592.805 240.392 545.912 235.934C561.215 258.592 576.074 282.371 590.283 306.957C604.397 331.376 617.588 355.9 629.648 380.23ZM442.944 663.73C414.66 634.325 386.145 599.671 358.801 561.199C385.92 562.935 413.773 563.787 442 563.787C470.382 563.787 498.393 562.823 525.658 560.914C498.835 599.526 470.975 634.392 442.944 663.73ZM442 472.553C486.661 472.553 522.865 436.003 522.865 390.917C522.865 345.831 486.661 309.282 442 309.282C397.339 309.282 361.135 345.831 361.135 390.917C361.135 436.003 397.339 472.553 442 472.553Z" fill="white"/>
<path fill-rule="evenodd" clip-rule="evenodd" d="M583.538 19.7004C552.789 30.986 517.338 52.8836 480.788 84.636C470.251 93.7898 459.612 103.756 448.938 114.47C479.379 145.912 509.723 183.539 538.623 225.275C589.137 229.677 636.603 237.468 679.016 248.08C682.078 236.8 684.729 225.765 686.947 215.02C697.407 164.333 699.027 120.026 693.292 85.7872C687.526 51.3589 674.522 28.0948 656.721 17.8471L659.204 13.5337L656.72 17.8471C639.69 8.04348 614.456 8.35294 583.538 19.7004ZM525.756 224.232C498.588 185.629 470.274 150.841 441.961 121.575C413.472 150.999 384.841 185.642 357.36 224.284C384.915 222.211 413.25 221.129 442 221.129C470.534 221.129 498.554 222.192 525.756 224.232ZM441.958 107.372C452.773 96.5204 463.562 86.415 474.26 77.1215C511.422 44.8371 547.902 22.1763 580.109 10.3558C612.147 -1.40306 640.897 -2.74772 661.687 9.2203C683.298 21.6609 697.148 48.5459 703.109 84.143C709.103 119.929 707.325 165.524 696.695 217.031C694.444 227.942 691.756 239.134 688.656 250.563C703.543 254.511 717.763 258.814 731.226 263.446C777.765 279.457 815.62 299.687 841.944 321.64C868.131 343.477 883.65 367.677 883.65 391.647C883.65 416.56 867.252 441.972 839.369 464.914C811.335 487.978 770.919 509.222 720.959 525.765C711.211 528.993 701.071 532.021 690.579 534.846C694.116 547.694 697.112 560.255 699.526 572.47C709.433 622.606 710.437 667.096 703.959 702.074C697.515 736.868 683.465 763.176 662.363 775.412C641.852 787.306 613.692 786.535 582.194 775.434C550.556 764.285 514.695 742.444 477.914 710.741C466.373 700.794 454.69 689.846 442.96 677.999C433.527 687.549 424.071 696.478 414.624 704.721C376.105 738.334 338.023 761.408 304.445 773.247C271.041 785.023 241.194 785.967 220.021 773.779L222.504 769.465L220.021 773.779C199.442 761.931 186.01 737.131 179.864 704.275C173.692 671.276 174.675 629.278 183.751 581.56C186.505 567.086 190.001 552.03 194.207 536.512C181.386 533.157 169.08 529.48 157.359 525.476C108.991 508.954 69.978 487.544 42.9536 464.415C16.0701 441.406 0.349731 416.057 0.349731 391.647C0.349731 367.922 15.1487 343.913 40.5639 322.181C66.0916 300.354 102.993 280.219 148.892 264.226C163.663 259.08 179.419 254.33 196.015 250.013C192.042 235.329 188.695 221.034 185.997 207.219C176.562 158.922 175.117 116.026 180.928 82.2436C186.708 48.6392 199.864 23.08 220.585 11.0649C242.123 -1.42493 272.296 0.027017 306.075 12.657C340.035 25.3545 378.614 49.6804 417.9 84.6213C425.903 91.7385 433.93 99.3349 441.958 107.372ZM205.668 247.574C201.736 233.056 198.428 218.938 195.766 205.31C186.487 157.809 185.19 116.184 190.738 83.9309C196.316 51.5003 208.617 29.5113 225.578 19.6761L225.579 19.676C243.308 9.39458 269.917 9.76446 302.589 21.9806C335.08 34.1292 372.623 57.6739 411.285 92.0592L414.347 88.6165L411.285 92.0592C419.16 99.0629 427.067 106.547 434.982 114.473C404.377 146.061 373.688 183.508 344.44 225.333C294.656 229.677 247.658 237.272 205.668 247.574ZM198.684 259.604C182.28 263.867 166.726 268.554 152.167 273.626C107.054 289.345 71.3533 308.952 47.0328 329.747C22.5998 350.638 10.3038 372.133 10.3038 391.647C10.3038 411.796 23.4607 434.63 49.426 456.852C75.2505 478.954 113.057 499.824 160.576 516.057L158.967 520.766L160.576 516.057C172.107 519.996 184.231 523.616 196.879 526.922C209.123 484.148 226.574 438.131 248.525 391.298C227.361 345.796 210.581 301.242 198.684 259.604ZM254.096 379.595C234.802 337.237 219.42 295.88 208.34 257.168C247.388 247.605 290.914 240.391 337.077 236C321.854 258.342 307.063 281.856 292.924 306.33C278.851 330.691 265.875 355.226 254.096 379.595ZM259.522 391.314C272.108 364.763 286.157 337.944 301.543 311.309C317.002 284.551 333.233 258.973 349.94 234.855C379.778 232.382 410.625 231.083 442 231.083C473.145 231.083 503.644 232.361 533.096 234.796C549.861 259.23 566.143 285.081 581.665 311.938C597.071 338.594 611.343 365.328 624.218 391.751C611.406 418.527 597.118 445.593 581.573 472.502C565.924 499.591 549.618 525.706 532.872 550.402C503.394 552.678 472.94 553.833 442 553.833C411.158 553.833 380.819 552.808 351.453 550.726C334.582 526.373 318.213 500.592 302.685 473.726C286.774 446.195 272.351 418.58 259.522 391.314ZM254.062 403.014C233.99 446.722 217.959 489.517 206.535 529.361C246.437 539.095 291.179 545.843 338.704 549.751C323.28 527.13 308.316 503.361 294.067 478.707C279.475 453.458 266.112 428.119 254.062 403.014ZM345.995 560.309C294.927 556.477 246.72 549.433 203.858 538.954C199.698 554.289 196.244 569.152 193.53 583.42C184.61 630.319 183.769 671.01 189.649 702.445C195.556 734.024 208.054 755.403 224.987 765.152C242.475 775.219 268.87 775.234 301.135 763.859C333.225 752.545 370.236 730.245 408.08 697.221C417.378 689.107 426.698 680.304 436.006 670.875C405.635 639.33 375.08 601.899 345.995 560.309ZM449.899 670.86C461.495 682.578 473.032 693.392 484.413 703.202C520.563 734.361 555.365 755.425 585.502 766.046C615.778 776.716 640.504 776.581 657.37 766.801C674.787 756.702 687.947 733.87 694.171 700.261C700.362 666.834 699.494 623.657 689.76 574.4C687.387 562.39 684.436 550.023 680.947 537.358C638.046 548.192 589.68 555.765 538.415 559.947C509.887 601.645 480.045 639.342 449.899 670.86ZM687.859 525.27C698.22 522.482 708.224 519.497 717.83 516.316C766.997 500.035 806.22 479.296 833.044 457.227C860.018 435.034 873.696 412.161 873.696 391.647C873.696 372.024 860.838 350.357 835.569 329.284C810.438 308.327 773.76 288.606 727.988 272.858C714.718 268.293 700.683 264.047 685.975 260.15C673.982 301.803 656.715 346.365 635.26 391.711C657.467 437.77 675.477 482.967 687.859 525.27ZM629.73 403.226C650.121 446.294 666.67 488.38 678.222 527.78C638.234 537.858 593.307 545.095 545.582 549.346C560.917 526.396 575.84 502.325 590.193 477.481C604.463 452.778 617.7 427.913 629.73 403.226ZM629.648 380.23C649.296 337.892 665.149 296.443 676.331 257.669C636.835 247.803 592.805 240.392 545.912 235.934C561.215 258.592 576.074 282.371 590.283 306.957C604.397 331.376 617.588 355.9 629.648 380.23ZM442.944 663.73C414.66 634.325 386.145 599.671 358.801 561.199C385.92 562.935 413.773 563.787 442 563.787C470.382 563.787 498.393 562.823 525.658 560.914C498.835 599.526 470.975 634.392 442.944 663.73ZM442 472.553C486.661 472.553 522.865 436.003 522.865 390.917C522.865 345.831 486.661 309.282 442 309.282C397.339 309.282 361.135 345.831 361.135 390.917C361.135 436.003 397.339 472.553 442 472.553Z" fill="url(#paint0_linear_752_5160)" fill-opacity="0.8"/>
<defs>
<linearGradient id="paint0_linear_752_5160" x1="188.16" y1="45.3153" x2="433.035" y2="436.678" gradientUnits="userSpaceOnUse">
<stop/>
<stop offset="1" stop-opacity="0"/>
</linearGradient>
</defs>
</svg>
